<?xml version="1.0" standalone="no"?>
<!DOCTYPE svg PUBLIC "-//W3C//DTD SVG 20010904//EN"
 "http://www.w3.org/TR/2001/REC-SVG-20010904/DTD/svg10.dtd">
<svg version="1.0" xmlns="http://www.w3.org/2000/svg"
 width="1024.000000pt" height="1024.000000pt" viewBox="0 0 1024.000000 1024.000000"
 preserveAspectRatio="xMidYMid meet">

  <!-- Círculo blanco de fondo -->
  <circle cx="512" cy="512" r="512" fill="white" />

  <g transform="translate(0.000000,1024.000000) scale(0.100000,-0.100000)"
  fill="#7C3AED" stroke="none">
    <path d="M2280 5595 l0 -2385 1384 0 1383 0 64 -29 c189 -85 462 -164 679
    -196 153 -23 463 -31 615 -16 671 65 1199 404 1476 947 81 159 134 357 159
    586 6 57 10 365 10 738 l0 640 -915 0 -915 0 0 -355 0 -355 515 0 515 0 0
    -297 c0 -324 -6 -382 -51 -518 -95 -286 -340 -495 -680 -581 -140 -35 -427
    -45 -593 -20 -216 32 -386 87 -558 180 l-85 46 -1071 0 -1072 0 0 2000 0 2000
    -430 0 -430 0 0 -2385z"/>
    <path d="M5775 7675 c-377 -53 -697 -183 -983 -399 -260 -197 -447 -421 -594
    -712 -314 -619 -315 -1397 -3 -2029 35 -71 87 -165 114 -208 l50 -77 421 2
    421 3 1 128 1 127 -51 65 c-265 330 -389 728 -352 1132 49 543 374 958 884
    1128 150 51 265 68 446 68 295 0 527 -67 755 -218 100 -66 226 -183 284 -263
    l45 -61 155 107 c86 58 236 161 333 228 l178 122 -61 80 c-300 405 -754 672
    -1299 768 -133 23 -605 29 -745 9z"/>
    <path d="M6283 4915 c-24 -17 -44 -76 -202 -593 -89 -288 -89 -294 -25 -306
    60 -12 78 9 115 126 17 57 73 239 125 406 88 284 105 354 86 366 -24 15 -79
    16 -99 1z"/>
    <path d="M5688 4672 c-144 -144 -178 -183 -178 -205 0 -22 33 -62 158 -193 86
    -91 170 -173 185 -181 52 -26 108 1 122 60 7 26 -3 39 -129 165 l-136 138 135
    134 c124 124 135 138 135 171 0 29 -7 43 -31 63 -57 48 -66 43 -261 -152z"/>
    <path d="M6532 4834 c-33 -23 -44 -59 -29 -94 6 -16 65 -85 130 -154 64 -68
    117 -128 117 -133 0 -4 -56 -64 -125 -133 -107 -106 -125 -129 -125 -156 0
    -46 39 -84 86 -84 35 0 49 11 211 173 147 146 173 177 173 202 0 25 -26 56
    -173 203 -94 95 -179 177 -187 182 -22 14 -53 12 -78 -6z"/>
  </g>
</svg>
