<?xml version="1.0" standalone="no"?>
<!DOCTYPE svg PUBLIC "-//W3C//DTD SVG 20010904//EN"
 "http://www.w3.org/TR/2001/REC-SVG-20010904/DTD/svg10.dtd">
<svg version="1.0" xmlns="http://www.w3.org/2000/svg"
 width="1024.000000pt" height="1024.000000pt" viewBox="0 0 1024.000000 1024.000000"
 preserveAspectRatio="xMidYMid meet">

<g transform="translate(0.000000,1024.000000) scale(0.100000,-0.100000)"
fill="#000000" stroke="none">
<path d="M2520 5849 l0 -1993 22 -45 c27 -55 677 -707 748 -749 l45 -27 830
-5 c691 -4 834 -7 855 -19 14 -8 118 -105 232 -215 114 -111 225 -210 245
-221 35 -19 57 -20 303 -20 l265 0 52 27 c29 16 67 41 85 56 41 36 412 332
708 567 515 408 717 681 823 1114 20 83 21 114 24 864 l4 777 -868 -2 -868 -3
-42 -23 c-34 -17 -96 -88 -283 -322 l-240 -300 801 0 800 0 -3 -422 c-4 -403
-5 -426 -27 -498 -97 -327 -364 -572 -721 -663 l-85 -22 -1275 0 c-1255 0
-1276 0 -1316 20 -24 11 -118 93 -215 188 l-174 168 -5 1802 -5 1802 -22 47
c-14 31 -36 56 -64 75 l-42 28 -294 3 -293 3 0 -1992z"/>
<path d="M5285 7376 c-288 -41 -523 -149 -767 -354 -280 -235 -471 -566 -539
-936 -19 -101 -21 -163 -26 -691 -7 -792 5 -954 88 -1200 l34 -100 393 -3 392
-2 -40 52 c-58 77 -116 200 -147 314 l-28 99 0 715 c0 819 -5 770 92 970 52
107 63 122 162 220 118 117 216 180 356 228 l80 27 775 3 c511 2 787 0 810 -7
45 -13 90 -60 128 -131 l30 -55 343 0 344 0 -3 75 c-14 292 -187 560 -445 689
-200 100 -140 95 -1102 97 -631 2 -862 -1 -930 -10z"/>
<path d="M6124 5043 c-30 -6 -59 -40 -77 -93 -8 -25 -72 -204 -141 -399 -69
-194 -126 -366 -126 -383 0 -68 100 -104 154 -55 22 20 111 253 219 575 l21
62 93 -92 93 -92 -149 -146 c-165 -160 -176 -180 -145 -246 12 -24 29 -41 52
-51 70 -29 85 -19 309 201 196 192 207 205 207 240 0 35 -12 49 -209 247 -174
175 -258 247 -277 238 -2 -1 -13 -4 -24 -6z"/>
<path d="M5605 5031 c-34 -15 -445 -422 -451 -447 -4 -14 -1 -38 6 -54 7 -16
99 -115 206 -219 207 -203 229 -218 293 -191 49 20 66 47 66 101 l0 49 -146
146 -145 145 149 147 c152 150 183 193 172 242 -13 59 -96 104 -150 81z"/>
</g>
</svg>
